<?xml version="1.0" encoding="UTF-8" standalone="no"?>
<svg
   width="192mm"
   height="46mm"
   viewBox="0 0 192 46"
   version="1.1"
   xmlns="http://www.w3.org/2000/svg">
  <defs
     id="defs1">
    <rect
       x="171.61728"
       y="105.01953"
       width="112.70388"
       height="189.54744"
       id="rect6" />
    <rect
       x="70.439926"
       y="65.317024"
       width="137.03767"
       height="215.16196"
       id="rect5" />
    <rect
       x="75.562828"
       y="40.983231"
       width="559.67725"
       height="219.00414"
       id="rect4" />
  </defs>
  <g transform="translate(-1.355435,-6.0994573)">
    <path
       d="M 83.796863,69.054113 V 3.5535004 h 27.416687 q 9.63795,0 16.93658,4.2107536 7.39222,4.117181 11.5094,11.509393 4.11718,7.392212 4.11718,17.03016 0,9.637947 -4.11718,17.030159 -4.11718,7.392212 -11.41582,11.602966 -7.29864,4.117181 -17.03016,4.117181 z M 110.74569,17.589346 H 99.704154 v 37.428921 h 11.041536 q 7.7665,0 12.35154,-5.146476 4.58504,-5.146477 4.58504,-13.567984 0,-8.421508 -4.67861,-13.567984 -4.58504,-5.146477 -12.25797,-5.146477 z m 52.02613,-8.0472182 q -4.21075,0 -6.64363,-1.9650184 -2.33931,-2.0585907 -2.33931,-5.8014828 0,-3.3686029 2.33931,-5.5207659 2.43288,-2.152163 6.64363,-2.152163 4.21076,0 6.55006,2.0585907 2.33931,1.9650183 2.33931,5.6143382 0,3.4621752 -2.43288,5.6143382 -2.33931,2.152163 -6.45649,2.152163 z M 155.28604,69.054113 V 19.36722 h 14.97157 v 49.686893 z m 51.7455,21.52163 q -6.0822,0 -12.16439,-1.777874 -5.98863,-1.777874 -9.73152,-4.585043 l 5.24004,-10.480098 q 2.99432,2.058591 6.73721,3.181459 3.83646,1.216439 7.95365,1.216439 7.01792,0 10.38652,-3.181458 3.3686,-3.087886 3.3686,-9.637947 v -2.620025 q -2.43287,2.620025 -6.36291,4.304326 -3.83647,1.684302 -8.14079,1.684302 -6.83078,0 -12.1644,-3.087886 -5.24005,-3.181459 -8.32794,-8.702224 -2.99431,-5.614339 -2.99431,-12.912978 0,-7.485785 2.99431,-13.193695 2.99432,-5.801483 8.23437,-9.076514 5.24005,-3.368603 11.79011,-3.368603 4.86576,0 8.98294,1.871446 4.11718,1.777874 6.55006,4.491471 l 0.28072,-5.333621 h 14.22299 v 45.663284 q 0,12.164399 -7.20507,18.808033 -7.1115,6.737206 -19.65019,6.737206 z m 0.37429,-33.498885 q 5.4272,0 8.60866,-3.462175 3.27503,-3.555748 3.27503,-9.544375 0,-5.988628 -3.27503,-9.544375 -3.18146,-3.555748 -8.60866,-3.555748 -5.33362,0 -8.51508,3.64932 -3.18145,3.555748 -3.18145,9.450803 0,5.895055 3.18145,9.450803 3.18146,3.555747 8.51508,3.555747 z m 62.22564,33.498885 q -6.0822,0 -12.16439,-1.777874 -5.98863,-1.777874 -9.73152,-4.585043 l 5.24004,-10.480098 q 2.99432,2.058591 6.73721,3.181459 3.83646,1.216439 7.95365,1.216439 7.01792,0 10.38652,-3.181458 3.3686,-3.087886 3.3686,-9.637947 v -2.620025 q -2.43288,2.620025 -6.36291,4.304326 -3.83647,1.684302 -8.14079,1.684302 -6.83078,0 -12.1644,-3.087886 -5.24005,-3.181459 -8.32794,-8.702224 -2.99431,-5.614339 -2.99431,-12.912978 0,-7.485785 2.99431,-13.193695 2.99432,-5.801483 8.23437,-9.076514 5.24004,-3.368603 11.79011,-3.368603 4.86576,0 8.98294,1.871446 4.11718,1.777874 6.55006,4.491471 l 0.28072,-5.333621 h 14.22299 v 45.663284 q 0,12.164399 -7.20507,18.808033 -7.1115,6.737206 -19.65019,6.737206 z m 0.37429,-33.498885 q 5.4272,0 8.60866,-3.462175 3.27503,-3.555748 3.27503,-9.544375 0,-5.988628 -3.27503,-9.544375 -3.18146,-3.555748 -8.60866,-3.555748 -5.33362,0 -8.51508,3.64932 -3.18145,3.555748 -3.18145,9.450803 0,5.895055 3.18145,9.450803 3.18146,3.555747 8.51508,3.555747 z m 39.48757,11.977255 V 19.36722 h 14.22299 l 0.28072,7.579356 q 2.52645,-3.836464 6.36292,-6.175772 3.93003,-2.43288 8.32793,-2.43288 1.6843,0 3.08789,0.280717 1.49716,0.280717 2.7136,0.655006 l -4.11719,16.562298 q -1.02929,-0.655006 -2.80716,-1.029295 -1.68431,-0.467862 -3.55575,-0.467862 -4.11718,0 -6.83078,2.713597 -2.62002,2.713597 -2.62002,7.111495 v 24.890233 z m 58.85705,0.842151 q -6.26934,0 -11.22867,-3.275031 -4.86576,-3.368603 -7.76651,-9.170086 -2.90074,-5.895055 -2.90074,-13.287267 0,-7.579356 2.90074,-13.380839 2.90075,-5.801483 7.86008,-9.076514 5.0529,-3.368603 11.60296,-3.368603 4.86576,0 8.60866,1.965019 3.74289,1.965018 6.17577,5.052904 V 19.36722 h 14.87799 v 49.686893 h -15.15871 v -5.988627 q -2.52645,3.087886 -6.45649,4.959332 -3.83646,1.871446 -8.51508,1.871446 z m 4.11718,-12.632261 q 5.14648,0 8.23437,-3.555748 3.08788,-3.555747 3.08788,-9.544375 0,-5.988627 -3.08788,-9.544375 -3.08789,-3.64932 -8.23437,-3.64932 -5.0529,0 -8.14079,3.64932 -2.99431,3.555748 -2.99431,9.544375 0,5.988628 2.99431,9.544375 3.08789,3.555748 8.14079,3.555748 z M 411.6744,89.64002 v -70.2728 h 14.22299 l 0.28071,5.427193 q 2.43288,-2.807169 6.45649,-4.585043 4.11718,-1.777873 8.7958,-1.777873 6.36291,0 11.32225,3.27503 4.95933,3.275031 7.7665,9.170086 2.90074,5.801483 2.90074,13.287267 0,7.485785 -2.90074,13.287267 -2.80717,5.801483 -7.86008,9.170086 -4.95933,3.275031 -11.41582,3.275031 -4.21075,0 -8.04721,-1.590729 -3.83647,-1.684302 -6.45649,-4.304326 V 89.64002 Z m 25.91952,-32.376017 q 5.05291,0 8.14079,-3.555748 3.08789,-3.64932 3.08789,-9.544375 0,-5.895055 -3.08789,-9.450802 -2.99431,-3.64932 -8.14079,-3.64932 -5.14647,0 -8.23436,3.555747 -3.08789,3.555748 -3.08789,9.544375 0,5.895055 3.08789,9.544375 3.08789,3.555748 8.23436,3.555748 z m 35.74466,11.79011 V -0.18939178 h 14.69085 V 25.168703 q 2.62003,-3.087886 6.55006,-4.959333 4.02361,-1.871446 8.42151,-1.871446 8.42151,0 12.81941,5.146477 4.39789,5.146477 4.39789,15.065141 V 69.054113 H 505.15316 V 39.765982 q 0,-9.076514 -7.67293,-8.795797 -3.93003,0 -6.55006,2.43288 -2.62002,2.339308 -2.62002,5.895055 v 29.755993 z"
       style="font-weight:bold;font-size:93.5723px;line-height:0;font-family:Lexend;-inkscape-font-specification:'Lexend, Bold';white-space:pre;stroke-width:1.82161;stroke-linecap:round;stroke-linejoin:round"
       transform="matrix(0.24840644,0,0,0.26458333,-15.260235,17.281796)"
       aria-label="Diggraph" />
    <path
       style="fill:#dd3f70"
       d="m 103.74001,48.565903 q -0.58703,0 -0.90311,-0.632178 -0.31609,-0.587023 -0.31609,-1.083735 0,-0.09031 0.0452,-0.225778 0,-0.135467 0,-0.270933 0.4064,-2.302936 1.49014,-4.154316 1.03858,-1.851379 2.48355,-3.476981 1.44498,-1.670757 2.98027,-3.251203 -0.85795,-0.767646 -1.71591,-1.806224 -0.85795,-1.083735 -0.85795,-2.257781 0,-1.264356 0.94826,-2.032002 0.94827,-0.767645 2.39325,-1.12889 1.44498,-0.4064 3.02542,-0.541867 1.58045,-0.135467 2.84481,-0.135467 0.49671,0 0.90311,0.04516 0.45156,0 0.76765,0 2.79964,-2.528714 5.64445,-4.967116 2.88995,-2.483558 5.77991,-4.876805 l 3.65761,-3.025426 q 0.49671,-0.361244 0.94826,-0.677334 0.45156,-0.361244 0.85796,-0.722489 0.13547,-0.135467 0.22578,-0.270934 0.13546,-0.135467 0.31609,-0.225778 0.49671,-0.451556 1.49013,-0.948267 1.03858,-0.541868 1.71591,-0.541868 0.49672,0 0.49672,0.361245 0,0.180623 -0.0452,0.225778 -0.22578,0.632179 -0.63218,1.625602 -0.4064,0.948267 -0.90311,1.896535 -0.45156,0.903112 -0.94827,1.354668 -0.0903,0.09031 -0.22578,0.135467 -0.0903,0.04516 -0.22577,0.135467 -0.27094,0.180622 -0.31609,0.361245 0,0.180622 -0.13547,0.496711 -0.31609,0.72249 -0.76764,1.444979 -0.4064,0.72249 -0.81281,1.44498 -0.85795,1.670757 -1.71591,3.431825 -0.8128,1.715913 -1.53529,3.522137 h 1.71591 q 0.45156,0 0.85796,0 0.45156,0 0.85796,0.04516 0.0903,0 0.27093,0.04516 0.18062,0.04516 0.18062,0.180622 0,0.135467 -0.27093,0.225778 -0.27093,0.04516 -0.36125,0.09031 -0.85795,0.135467 -2.032,0.361245 -1.12889,0.180622 -1.80622,0.812801 -1.76107,4.51556 -1.76107,9.482676 0,0.180623 0,0.316089 0,0.135467 0.0452,0.31609 0.54186,0.04515 1.08373,0.04515 0.54187,0.04516 1.12889,0.04516 0.36125,0 0.67733,-0.04516 0.36125,0 0.67734,0 0.36124,0 0.36124,0.225778 0,0.361245 -0.54186,1.038579 -0.49672,0.72249 -0.8128,0.948268 -0.45156,0.316089 -0.99343,0.496711 -0.54187,0.180623 -1.12889,0.180623 -1.17404,0 -1.80622,-0.541868 -0.63218,-0.496711 -0.85796,-1.715912 -1.58044,-0.135467 -3.70276,-0.496712 -2.12231,-0.361245 -4.38009,-0.903112 -2.25778,-0.541867 -4.24463,-1.264357 -1.98684,-0.767645 -3.29636,-1.715913 -1.35466,1.444979 -2.70933,3.070581 -1.30952,1.580446 -2.30294,3.341515 -0.99342,1.761068 -1.35467,3.79307 v 0.406401 q 0,0.316089 0.0903,0.677334 0.0452,0.361244 0.0452,0.722489 0,0.587023 -0.58702,0.587023 z m 25.46776,-20.816732 q 0.36124,-0.948268 0.72249,-1.896536 0.4064,-0.948267 0.76764,-1.851379 0.13547,-0.316089 0.54187,-1.174046 0.4064,-0.903112 0.94827,-2.077158 0.54186,-1.219201 1.03858,-2.348091 0.49671,-1.12889 0.8128,-1.941691 0.36124,-0.857956 0.36124,-1.038578 0,-0.04516 -0.0451,-0.04516 0,0 0,0 -3.92854,2.66418 -7.67646,5.825073 -3.74791,3.160892 -7.13458,6.502406 z m -3.07058,11.740456 v -0.225778 q 0,-2.799647 0.90311,-5.418672 0.94827,-2.619025 1.80622,-5.147739 -0.72249,0 -1.49013,0 -0.72249,-0.04515 -1.44498,-0.04515 -1.2192,0 -2.93512,0.09031 -1.67075,0.09031 -3.29636,0.451556 -1.58044,0.316089 -2.57386,1.083734 -1.44498,1.12889 -2.93512,2.348092 -1.49013,1.174045 -2.79965,2.483558 1.17405,1.038579 3.02543,1.806224 1.89653,0.722489 4.01885,1.264357 2.12231,0.541867 4.15431,0.857956 2.03201,0.316089 3.5673,0.451556 z m -15.80446,-4.876805 q 1.49013,-1.490135 3.07058,-2.889958 1.58044,-1.44498 3.11573,-2.889959 -0.22578,-0.04516 -0.49671,-0.04516 -0.22578,0 -0.45156,0 -0.67733,0 -1.80622,0.180622 -1.12889,0.135467 -2.25778,0.541867 -1.08373,0.406401 -1.85138,1.038579 -0.76764,0.632178 -0.76764,1.580446 0,0.72249 0.45155,1.354668 0.49671,0.632179 0.99343,1.12889 z m 19.19113,7.179741 q 0.4064,0 0.8128,-0.406401 0.4064,-0.4064 0.4064,-0.8128 v -0.04516 q -0.18063,0 -0.45156,0 -0.22578,0.04516 -0.45155,0.04516 -0.31609,0 -0.67734,-0.04516 -0.31609,0 -0.67733,0 0.0903,0.4064 0.31609,0.812801 0.22577,0.451556 0.72249,0.451556 z m 3.20608,-1.761069 q -0.31609,0 -0.27093,-0.225778 1.26435,-2.167469 2.30293,-4.425249 1.08374,-2.25778 2.032,-4.560715 0,-0.09031 0.18063,-0.496712 0.18062,-0.451556 0.18062,-0.496712 0,-0.135466 -0.22578,-0.09031 -0.22578,0.04516 -0.22578,-0.135467 0,-0.09031 0.36125,-0.677334 0.36124,-0.632178 0.76764,-1.264356 0.4064,-0.677335 0.49671,-0.812801 0.22578,-0.270934 0.85796,-0.541868 0.63218,-0.270933 0.94827,-0.270933 0.45155,0 0.45155,0.4064 0,0.135467 -0.31609,0.903112 -0.31608,0.767646 -0.8128,1.806224 -0.49671,1.038579 -0.99342,2.122314 -0.49671,1.083734 -0.90311,1.896535 -0.4064,0.812801 -0.54187,1.083734 0.36125,-0.451556 1.17405,-1.309512 0.85795,-0.903112 1.89653,-1.941691 1.08374,-1.038579 2.16747,-1.986846 1.08374,-0.993424 1.94169,-1.580446 0.90311,-0.632179 1.39983,-0.632179 0.36124,0 0.4064,0.270934 0.0903,0.270933 0.0903,0.496711 0,0.587023 -0.13547,1.219202 -0.13547,0.632178 -0.31609,1.219201 -0.36124,1.354668 -0.90311,3.206048 -0.49671,1.806224 -0.49671,3.160892 0,0.677334 0.22578,1.264356 0.27093,0.541868 1.08373,0.541868 0.63218,0 1.30951,-0.406401 0.72249,-0.4064 1.30951,-0.948267 0.63218,-0.587023 1.08374,-0.993424 0.49671,-0.4064 0.63218,-0.4064 0.0452,0 0.0452,0.09031 0,0.135467 -0.0903,0.361245 -0.0452,0.180622 -0.13546,0.270934 -0.72249,1.12889 -2.12232,2.167468 -1.35467,1.038579 -2.70933,1.038579 -1.39983,0 -2.12232,-0.812801 -0.67733,-0.857956 -0.67733,-2.212624 0,-1.174046 0.4064,-2.619025 0.45155,-1.444979 0.76764,-2.619025 0.0903,-0.361245 0.22578,-0.857956 0.18062,-0.496712 0.18062,-0.857957 0,-0.09031 -0.0452,-0.225778 -0.0452,-0.135466 -0.18062,-0.135466 -0.22578,0 -0.58703,0.270933 -0.31609,0.225778 -0.49671,0.361245 -0.85795,0.72249 -1.94169,1.85138 -1.03858,1.12889 -2.07716,2.483558 -1.03858,1.309512 -1.89653,2.573869 -0.85796,1.264357 -1.35467,2.25778 -0.0903,0.225778 -0.58702,0.541867 -0.45156,0.270934 -0.99343,0.451556 -0.49671,0.225778 -0.76764,0.225778 z m 21.4941,-15.307749 q -0.13546,0 -0.18062,-0.316089 0,-0.361245 0,-0.451556 0,-0.135467 0.0452,-0.587023 0.0452,-0.451556 0.27093,-0.496711 0.63218,-0.09031 1.26436,-0.225778 0.63218,-0.135467 1.26436,-0.316089 0.0903,-0.04516 0.27093,-0.04516 0.22578,0 0.22578,0.225778 0,0.496712 -0.63218,1.038579 -0.58702,0.496711 -1.35467,0.857956 -0.72249,0.316089 -1.17405,0.316089 z m -3.6576,14.630415 q -2.21262,0 -2.21262,-2.25778 0,-0.948267 0.27093,-1.941691 0.31609,-0.993423 0.67733,-1.851379 0.4064,-0.993424 0.90312,-1.941691 0.49671,-0.948268 0.99342,-1.896535 0.22578,-0.406401 0.4064,-0.812801 0.22578,-0.451556 0.45156,-0.857957 0.22577,-0.316089 0.85795,-0.541867 0.63218,-0.225778 0.99343,-0.225778 0.0452,0 0,0.04516 -0.0452,0 -0.0452,0 0,0 0,0 0.0452,0 0.0452,0.04516 0.0903,-0.09031 0.22577,-0.09031 0.18063,0 0.22578,0.180623 0.0452,0.135466 0.0452,0.270933 0,0.316089 -0.27094,0.948268 -0.22577,0.632178 -0.58702,1.219201 -0.31609,0.541867 -0.63218,0.677334 -0.4064,0.948268 -1.08373,2.077158 -0.63218,1.12889 -1.17405,2.302935 -0.54186,1.12889 -0.54186,2.212625 0,1.264357 1.35466,1.264357 0.63218,0 1.35467,-0.406401 0.76765,-0.4064 1.49014,-0.948267 0.72249,-0.587023 1.2192,-0.993424 0.54186,-0.4064 0.67733,-0.4064 0.0452,0 0.0452,0.04516 0,0 0,0 0,0.180622 -0.13547,0.4064 -0.13547,0.180622 -0.22578,0.270934 -0.54187,0.722489 -1.44498,1.490134 -0.90311,0.72249 -1.94169,1.219202 -0.99342,0.496711 -1.94169,0.496711 z m 4.28979,0.677334 q -0.27093,0 -0.27093,-0.225778 1.2192,-2.077157 2.12231,-4.244626 0.90312,-2.212625 1.76107,-4.425249 l 0.49671,-1.309513 q 0,-0.135466 -0.27093,-0.09031 -0.22578,0.04516 -0.22578,-0.135467 0,-0.09031 0.36125,-0.677334 0.4064,-0.632178 0.8128,-1.264356 0.4064,-0.677335 0.49671,-0.812801 0.18062,-0.270934 0.8128,-0.541868 0.63218,-0.270933 0.94827,-0.270933 0.45155,0 0.45155,0.4064 0,0.135467 -0.45155,1.174046 -0.4064,0.993423 -0.99343,2.393247 -0.58702,1.354668 -1.08373,2.573869 -0.49671,1.174046 -0.63218,1.670757 0.36125,-0.451556 1.17405,-1.309512 0.8128,-0.903112 1.85138,-1.941691 1.03858,-1.038579 2.12231,-1.986846 1.08373,-0.948268 1.94169,-1.535291 0.90311,-0.632178 1.39982,-0.632178 0.4064,0 0.49672,0.361245 0.13546,0.316089 0.13546,0.632178 0,0.857956 -0.4064,2.167469 -0.36124,1.309512 -0.85795,2.619025 -0.49672,1.309512 -0.85796,2.122313 0.90311,-0.767645 1.94169,-1.761069 1.08373,-1.038578 2.07716,-2.122313 0.99342,-1.083734 1.6256,-2.032002 0.36124,-0.451556 0.85796,-0.451556 0.94826,0 0.94826,0.903112 0,0.451556 -0.31609,1.354668 -0.31608,0.903112 -0.72249,1.12889 -0.22577,0.948268 -0.4064,1.986847 -0.18062,0.993423 -0.18062,2.032002 0,0.4064 0.0903,0.993423 0.0903,0.541867 0.36125,0.993423 0.27093,0.406401 0.8128,0.406401 0.63218,0 1.30951,-0.406401 0.67734,-0.4064 1.30951,-0.948267 0.63218,-0.587023 1.08374,-0.993424 0.45155,-0.4064 0.58702,-0.4064 0.0903,0 0.0903,0.09031 0,0.135467 -0.0903,0.361245 -0.0903,0.180622 -0.18062,0.270934 -0.67734,1.12889 -2.07716,2.167468 -1.35467,1.038579 -2.75449,1.038579 -1.49014,0 -2.07716,-0.948267 -0.58702,-0.948268 -0.58702,-2.25778 0,-1.399824 0.4064,-2.799648 0.45156,-1.444979 0.90311,-2.709336 -1.12889,1.399824 -2.4384,2.754492 -1.30951,1.309512 -2.61903,2.528714 -0.31609,0.993423 -1.2192,2.077157 -0.85795,1.083735 -2.032,1.083735 -0.0452,0 -0.22578,-0.04516 -0.13546,-0.04516 -0.13546,-0.180622 0,0 0,-0.04516 0,-0.04516 0.0452,-0.04516 0.31609,-0.857956 0.8128,-2.077157 0.54187,-1.219201 1.08374,-2.573869 0.58702,-1.354669 0.94826,-2.57387 0.4064,-1.219201 0.4064,-2.032002 0,-0.135467 -0.0451,-0.316089 0,-0.180622 -0.22578,-0.180622 -0.4064,0 -1.17404,0.677334 -0.72249,0.632178 -1.62561,1.670757 -0.90311,0.993423 -1.80622,2.077158 -0.85796,1.083734 -1.53529,1.986846 -0.67733,0.857956 -0.90311,1.219201 -0.72249,1.038579 -1.30952,2.167469 -0.0903,0.225778 -0.58702,0.541867 -0.45155,0.270934 -0.99342,0.451556 -0.49671,0.225778 -0.76765,0.225778 z m 22.98421,-0.361244 q -0.99342,0 -1.30951,-0.31609 -0.31609,-0.316089 -0.31609,-1.309512 0,-1.083735 0.49671,-2.483558 0.54187,-1.399824 0.99342,-2.348091 0,-0.04516 -0.0452,-0.04516 0,-0.04516 0,-0.09031 0,-0.225778 0.13546,-0.361245 0.18063,-0.135467 0.27094,-0.270934 0.22578,-0.361245 0.4064,-0.722489 0.18062,-0.361245 0.36124,-0.677334 0.76765,-1.219202 1.85138,-2.348092 1.12889,-1.12889 2.52872,-1.53529 0.49671,-0.135467 0.94826,-0.135467 0.0903,0 0.18063,0.04516 0.13546,0 0.13546,0.09031 0,0.135467 -0.27093,0.316089 -0.22578,0.180623 -0.31609,0.270934 -0.72249,0.587023 -1.58045,1.806224 -0.8128,1.219201 -1.30951,1.986846 1.03858,-0.180622 2.032,-0.270933 1.03858,-0.09031 2.03201,0 0.49671,-0.72249 0.90311,-1.761069 0.45155,-1.083734 0.45155,-1.986846 0,-0.496712 -0.13546,-0.587023 -0.0903,-0.09031 -0.49671,-0.09031 -0.0903,0 -0.27094,-0.04516 -0.18062,-0.04516 -0.18062,-0.180622 0,-0.180623 0.4064,-0.31609 0.4064,-0.135466 0.85796,-0.180622 0.45155,-0.09031 0.58702,-0.09031 1.2192,0 1.2192,1.12889 0,0.632178 -0.4064,1.53529 -0.36124,0.857957 -0.94827,1.625602 -0.54186,0.72249 -1.08373,1.038579 0.13547,0 0.54187,0.135467 0.45155,0.09031 0.8128,0.225778 0.4064,0.135466 0.4064,0.316089 0,0.135467 -0.27094,0.180622 -0.27093,0 -0.36124,0 -0.4064,0 -0.8128,-0.04516 -0.4064,-0.09031 -0.8128,-0.09031 -1.26436,0 -2.57387,0.180623 -1.26436,0.180622 -2.52872,0.451556 -0.45155,0.812801 -1.03857,2.077158 -0.54187,1.264356 -0.54187,2.25778 0,1.580446 1.6256,1.580446 1.17405,0 2.25778,-0.632179 1.12889,-0.632178 2.07716,-1.490135 0.94827,-0.857956 1.53529,-1.490134 0.58702,-0.632179 0.67733,-0.632179 0.13547,0 0.13547,0.180623 0,0.541867 -0.63218,1.309512 -0.63218,0.72249 -1.03858,1.038579 -1.58044,1.219201 -3.56729,1.986846 -1.94169,0.767646 -4.01885,0.767646 z"
       aria-label="Anime" />
  </g>
</svg>
